<?xml version="1.0" encoding="UTF-8" standalone="no"?>
<!-- Created with Inkscape (http://www.inkscape.org/) -->

<svg
   xmlns:dc="http://purl.org/dc/elements/1.1/"
   xmlns:cc="http://creativecommons.org/ns#"
   xmlns:rdf="http://www.w3.org/1999/02/22-rdf-syntax-ns#"
   xmlns:svg="http://www.w3.org/2000/svg"
   xmlns="http://www.w3.org/2000/svg"
   xmlns:sodipodi="http://sodipodi.sourceforge.net/DTD/sodipodi-0.dtd"
   xmlns:inkscape="http://www.inkscape.org/namespaces/inkscape"
   width="210mm"
   height="297mm"
   viewBox="0 0 744.09448819 1052.3622047"
   id="svg2"
   version="1.1"
   inkscape:version="0.91 r13725"
   sodipodi:docname="icon.svg">
  <defs
     id="defs4" />
  <sodipodi:namedview
     id="base"
     pagecolor="#ffffff"
     bordercolor="#666666"
     borderopacity="1.0"
     inkscape:pageopacity="0.0"
     inkscape:pageshadow="2"
     inkscape:zoom="0.98994949"
     inkscape:cx="32.459859"
     inkscape:cy="640.43519"
     inkscape:document-units="px"
     inkscape:current-layer="layer1"
     showgrid="false"
     inkscape:window-width="1366"
     inkscape:window-height="705"
     inkscape:window-x="-8"
     inkscape:window-y="-8"
     inkscape:window-maximized="1" />
  <metadata
     id="metadata7">
    <rdf:RDF>
      <cc:Work
         rdf:about="">
        <dc:format>image/svg+xml</dc:format>
        <dc:type
           rdf:resource="http://purl.org/dc/dcmitype/StillImage" />
        <dc:title />
      </cc:Work>
    </rdf:RDF>
  </metadata>
  <g
     inkscape:label="Camada 1"
     inkscape:groupmode="layer"
     id="layer1">
    <g
       id="g4237">
      <rect
         y="412.33591"
         x="239.07767"
         height="48"
         width="48"
         id="rect4140"
         style="opacity:0.95999995;fill:#808000;fill-opacity:0.68454261;stroke:none;stroke-width:2.79999995;stroke-linecap:round;stroke-miterlimit:4;stroke-dasharray:none;stroke-opacity:1" />
      <text
         sodipodi:linespacing="125%"
         id="text4148"
         y="446.79501"
         x="245.15009"
         style="font-style:normal;font-weight:normal;font-size:29.61173058px;line-height:125%;font-family:sans-serif;letter-spacing:0px;word-spacing:0px;fill:#000000;fill-opacity:1;stroke:none;stroke-width:1px;stroke-linecap:butt;stroke-linejoin:miter;stroke-opacity:1"
         xml:space="preserve"><tspan
           y="446.79501"
           x="245.15009"
           id="tspan4150"
           sodipodi:role="line">48</tspan></text>
    </g>
    <g
       id="g4242">
      <rect
         y="444.33591"
         x="148.45547"
         height="16"
         width="16"
         id="rect4136"
         style="opacity:0.95999995;fill:#808000;fill-opacity:0.68454261;stroke:none;stroke-width:2.79999995;stroke-linecap:round;stroke-miterlimit:4;stroke-dasharray:none;stroke-opacity:1" />
      <text
         sodipodi:linespacing="125%"
         id="text4156"
         y="455.13498"
         x="150.64453"
         style="font-style:normal;font-weight:normal;font-size:8.12690258px;line-height:125%;font-family:sans-serif;letter-spacing:0px;word-spacing:0px;fill:#000000;fill-opacity:1;stroke:none;stroke-width:1px;stroke-linecap:butt;stroke-linejoin:miter;stroke-opacity:1"
         xml:space="preserve"><tspan
           y="455.13498"
           x="150.64453"
           id="tspan4158"
           sodipodi:role="line">16</tspan></text>
    </g>
    <g
       id="xxicon256"
       inkscape:label="#g4228">
      <rect
         style="opacity:0.95999995;fill:none;fill-opacity:0.68454261;stroke:none;stroke-width:2.79999995;stroke-linecap:round;stroke-miterlimit:4;stroke-dasharray:none;stroke-opacity:1"
         id="rect4142"
         width="256"
         height="256"
         x="308.38876"
         y="204.33592" />
      <rect
         y="240.93364"
         x="342.14285"
         height="165"
         width="177.85715"
         id="rect4226"
         style="opacity:0.95999995;fill:#000000;fill-opacity:1;stroke:none;stroke-width:2.79999995;stroke-linecap:round;stroke-miterlimit:4;stroke-dasharray:none;stroke-opacity:1" />
      <g
         transform="matrix(0.5227676,0,0,0.5227676,197.65958,519.77534)"
         id="g4220">
        <path
           inkscape:connector-curvature="0"
           id="path4213"
           d="m 529.05041,-139.16141 c -44.13785,-5.54388 -84.21928,-34.09757 -103.10846,-73.45366 -9.5917,-19.98455 -13.35759,-36.68778 -13.30207,-59 0.0905,-36.3901 12.83677,-66.22053 39.23416,-91.82108 25.90342,-25.12149 57.26866,-37.88948 93.07749,-37.88948 36.32855,0 68.23346,13.17222 93.53679,38.61747 18.98117,19.08764 30.52265,40.35285 36.1427,66.59309 2.53667,11.84377 2.52986,39.04448 -0.0128,51 -10.17098,47.82429 -44.23426,86.08808 -89.31524,100.32915 -17.54722,5.54317 -39.45809,7.73396 -56.2526,5.62451 z m 59.40112,-114.45366 0,-7 -43.5,0 -43.5,0 -0.30402,5.88803 c -0.16721,3.23841 -0.067,6.5057 0.2227,7.26064 0.43739,1.13984 7.86595,1.32841 43.80402,1.11197 l 43.2773,-0.26064 0,-7 z m 0,-34 0,-7 -43.5,0 -43.5,0 -0.30402,5.88803 c -0.16721,3.23841 -0.067,6.5057 0.2227,7.26064 0.43739,1.13984 7.86595,1.32841 43.80402,1.11197 l 43.2773,-0.26064 0,-7 z"
           style="fill:#25e8b7" />
        <path
           inkscape:connector-curvature="0"
           id="path4211"
           d="m 328.52296,-225.6865 c -1.29277,-1.29277 -1.57143,-4.30736 -1.57143,-17 l 0,-15.42857 -15.42857,0 c -18.47704,0 -18.57143,-0.0483 -18.57143,-9.5 0,-9.45171 0.0944,-9.5 18.57143,-9.5 l 15.42857,0 0,-15.42857 c 0,-18.47704 0.0483,-18.57143 9.5,-18.57143 9.45171,0 9.5,0.0944 9.5,18.57143 l 0,15.42857 15.42857,0 c 18.47704,0 18.57143,0.0483 18.57143,9.5 0,9.45171 -0.0944,9.5 -18.57143,9.5 l -15.42857,0 0,15.42857 c 0,18.47704 -0.0483,18.57143 -9.5,18.57143 -4.44589,0 -6.82959,-0.47245 -7.92857,-1.57143 z m 15.42857,-17.42857 0.5,-16.5 16.5,-0.5 16.5,-0.5 0,-7 0,-7 -16.5,-0.5 -16.5,-0.5 -0.5,-16.5 -0.5,-16.5 -7,0 -7,0 -0.5,16.5 -0.5,16.5 -16.5,0.5 -16.5,0.5 0,7 0,7 16.5,0.5 16.5,0.5 0.25949,15.5 c 0.14272,8.525 0.47404,16.0832 0.73627,16.796 0.34163,0.92865 2.39397,1.2121 7.24051,1 l 6.76373,-0.296 0.5,-16.5 z m 86.60375,-95.5 c 4.79935,-8.84881 7.95898,-12.79559 18.72899,-23.39492 21.46024,-21.12014 38.74556,-31.1079 65.60689,-37.90879 9.66035,-2.44585 12.22228,-2.67373 30.06037,-2.67373 17.83809,0 20.40002,0.22788 30.06037,2.67373 26.11817,6.61274 46.26264,18.09234 63.93963,36.43689 l 7.5,7.78324 -9.02895,-8.52857 c -26.05772,-24.61363 -57.17715,-37.09841 -92.47105,-37.09841 -35.85058,0 -67.16974,12.76372 -93.154,37.96372 -8.18831,7.94117 -12.33917,13.04902 -22.65006,27.87211 -0.71723,1.0311 -0.0837,-0.37527 1.40781,-3.12527 z M 237.95153,-464.45138 c 0,-98.65198 -0.0879,-96.9265 5.29545,-103.9844 1.35523,-1.7768 4.88066,-4.56901 7.8343,-6.20491 l 5.37025,-2.97438 92.25472,-0.27988 92.25472,-0.27988 -0.25472,102.27988 -0.25472,102.27988 -101.25,0.25476 -101.25,0.25476 0,-91.34583 z m 144.5,-14.16369 0,-7 -43.5,0 -43.5,0 -0.30402,5.88803 c -0.16721,3.23841 -0.067,6.5057 0.2227,7.26064 0.43739,1.13984 7.86595,1.32841 43.80402,1.11197 l 43.2773,-0.26064 0,-7 z m 174.25019,25.76082 -11.73918,-11.73917 -11.27115,11.23917 c -6.19914,6.18155 -11.95792,11.23918 -12.7973,11.23918 -1.92483,0 -9.94256,-8.08195 -9.94256,-10.0222 0,-0.79558 5.05516,-6.51605 11.23369,-12.71215 l 11.23369,-11.26565 -11.23369,-11.26565 c -6.17853,-6.1961 -11.23369,-11.91657 -11.23369,-12.71215 0,-1.94025 8.01773,-10.0222 9.94256,-10.0222 0.83938,0 6.59569,5.05516 12.79179,11.23369 l 11.26565,11.23369 11.26565,-11.23369 c 6.1961,-6.17853 11.95241,-11.23369 12.79179,-11.23369 1.92483,0 9.94256,8.08195 9.94256,10.0222 0,0.79558 -5.05531,6.5162 -11.23403,12.71249 l -11.23403,11.26599 11.73403,11.76468 c 6.45372,6.47057 11.73403,12.22484 11.73403,12.78725 0,1.29326 -9.23498,10.44739 -10.53967,10.44739 -0.53403,0 -6.2536,-5.28263 -12.71014,-11.73918 z m -24.25019,-1.26082 c 6.03124,-6.05 11.65624,-11 12.5,-11 0.84376,0 6.46876,4.95 12.5,11 6.03124,6.05 11.40459,11 11.94078,11 1.33445,0 8.55922,-7.14946 8.55922,-8.47 0,-0.58526 -4.95,-5.99876 -11,-12.03 -6.05,-6.03124 -11,-11.64152 -11,-12.4673 0,-0.82577 5.05587,-6.57166 11.23526,-12.76863 l 11.23527,-11.26723 -4.73369,-4.73368 -4.73368,-4.73369 -11.26723,11.23527 c -6.19697,6.17939 -11.92814,11.23526 -12.73593,11.23526 -0.80779,0 -6.53896,-5.05587 -12.73593,-11.23526 l -11.26723,-11.23527 -4.73368,4.73369 -4.73369,4.73368 11.23527,11.26723 c 6.17939,6.19697 11.23526,11.92814 11.23526,12.73593 0,0.80779 -5.04938,6.53245 -11.22085,12.72147 l -11.22084,11.25277 4.42905,4.51288 c 2.43598,2.48208 4.68054,4.51288 4.9879,4.51288 0.30737,0 5.4935,-4.95 11.52474,-11 z"
           style="fill:#8399a4" />
        <path
           inkscape:connector-curvature="0"
           id="path4209"
           d="m 255.94506,-170.04941 c -7.22429,-2.19753 -13.64443,-7.90379 -16.86863,-14.99293 -1.47752,-3.24868 -1.65088,-20.1712 -1.91138,-186.57273 -0.2036,-130.06311 0.0302,-184.30173 0.80831,-187.5 1.54056,-6.33233 5.30547,-11.61744 10.72352,-15.05346 2.55541,-1.6206 5.12061,-2.94232 5.70043,-2.93716 0.57982,0.005 -1.26756,1.34101 -4.10529,2.96855 -2.83773,1.62754 -6.15408,4.35591 -7.36966,6.06304 -5.02876,7.06224 -4.97083,5.85466 -4.97083,103.62272 l 0,91.34583 101.25,-0.25476 101.25,-0.25476 0.25472,-102.25 c 0.14009,-56.2375 0.59009,-102.25005 1,-102.2501 0.4099,-6e-5 0.62503,49.81233 0.47807,110.69418 l -0.26722,110.69429 8.26722,-7.99999 c 13.86534,-13.41716 26.35621,-21.89604 42.67422,-28.96753 9.17694,-3.97687 29.47128,-9.47354 34.44967,-9.3306 1.83395,0.0527 0.22743,0.6219 -3.85668,1.36655 -22.08775,4.02722 -42.08143,12.64393 -58,24.99635 -9.81449,7.6158 -26.49248,24.57633 -31.02132,31.54685 -8.90803,13.71071 -16.00047,31.13581 -19.55479,48.04333 -2.85789,13.59463 -3.10645,36.18071 -0.5429,49.33067 5.40501,27.72544 17.53893,50.95506 36.83753,70.52311 5.91807,6.00071 7.39223,7.93951 5.16551,6.79363 -3.35484,-1.72641 -14.68734,-13.50119 -19.66508,-20.43256 -1.68058,-2.34017 -3.26275,-4.04772 -3.51592,-3.79454 -0.72373,0.72372 5.76424,10.41491 11.58799,17.30919 2.91434,3.45005 5.02703,6.71255 4.69487,7.25 -0.72204,1.16829 -189.65496,1.21011 -193.49236,0.0428 z m 88.43504,-55.63709 c 1.29277,-1.29277 1.57143,-4.30736 1.57143,-17 l 0,-15.42857 15.42857,0 c 18.47704,0 18.57143,-0.0483 18.57143,-9.5 0,-9.45171 -0.0944,-9.5 -18.57143,-9.5 l -15.42857,0 0,-15.42857 c 0,-18.47704 -0.0483,-18.57143 -9.5,-18.57143 -9.45171,0 -9.5,0.0944 -9.5,18.57143 l 0,15.42857 -15.42857,0 c -18.47704,0 -18.57143,0.0483 -18.57143,9.5 0,9.45171 0.0944,9.5 18.57143,9.5 l 15.42857,0 0,15.42857 c 0,18.47704 0.0483,18.57143 9.5,18.57143 4.44589,0 6.82959,-0.47245 7.92857,-1.57143 z m 306.44387,-123.17857 c -1.24387,-1.58606 -1.2085,-1.62143 0.37756,-0.37756 1.66575,1.30637 2.19548,2.12756 1.37244,2.12756 -0.20765,0 -0.99515,-0.7875 -1.75,-1.75 z m -4.24157,-6 c -3.09546,-4.84831 -16.36827,-17.63931 -24.44027,-23.55306 -15.85204,-11.6136 -34.12805,-19.23436 -55.6906,-23.22193 -4.12996,-0.76375 -5.71122,-1.33151 -3.85668,-1.38476 4.97839,-0.14294 25.27273,5.35373 34.44967,9.3306 15.91356,6.89622 32.61914,18.31617 43.49803,29.73531 4.49928,4.7227 10.11901,12.84384 8.8878,12.84384 -0.24955,0 -1.53113,-1.6875 -2.84795,-3.75 z m -108.88087,-48.99251 c 3.9875,-0.18981 10.5125,-0.18981 14.5,0 3.9875,0.18982 0.725,0.34512 -7.25,0.34512 -7.975,0 -11.2375,-0.1553 -7.25,-0.34512 z m -23.03759,-42.04184 c -2.59183,-2.63139 -4.71241,-5.43685 -4.71241,-6.23435 0,-0.7975 5.05516,-6.51955 11.23369,-12.71565 l 11.23369,-11.26565 -11.23369,-11.26565 c -6.17853,-6.1961 -11.23369,-11.95052 -11.23369,-12.78759 0,-1.92681 9.07923,-10.94676 11.0187,-10.94676 0.7975,0 6.51955,5.05516 12.71565,11.23369 l 11.26565,11.23369 11.26565,-11.23369 c 6.1961,-6.17853 11.95052,-11.23369 12.78759,-11.23369 1.92681,0 10.94676,9.07923 10.94676,11.0187 0,0.7975 -5.05531,6.5197 -11.23403,12.71599 l -11.23403,11.26599 11.73403,11.76468 c 6.45372,6.47057 11.73403,12.22484 11.73403,12.78725 0,0.56242 -2.3625,3.25566 -5.25,5.98498 l -5.25,4.96241 4.75,-5.03435 c 2.6125,-2.76889 4.75,-5.46213 4.75,-5.98498 0,-0.52285 -5.28031,-6.24474 -11.73403,-12.71531 l -11.73403,-11.76468 11.23403,-11.26599 c 6.17872,-6.19629 11.23403,-11.91691 11.23403,-12.71249 0,-1.94025 -8.01773,-10.0222 -9.94256,-10.0222 -0.83938,0 -6.59569,5.05516 -12.79179,11.23369 l -11.26565,11.23369 -11.26565,-11.23369 c -6.1961,-6.17853 -11.95241,-11.23369 -12.79179,-11.23369 -1.92483,0 -9.94256,8.08195 -9.94256,10.0222 0,0.79558 5.05516,6.51605 11.23369,12.71215 l 11.23369,11.26565 -11.23369,11.26565 c -6.17853,6.1961 -11.23369,11.95241 -11.23369,12.79179 0,1.92483 8.08195,9.94256 10.0222,9.94256 0.79558,0 6.51852,-5.05763 12.71766,-11.23918 l 11.27115,-11.23917 11.74449,11.98366 11.7445,11.98367 -11.75,-11.47818 -11.75,-11.47818 -11.26565,11.23369 c -6.1961,6.17853 -11.95052,11.23369 -12.78759,11.23369 -0.83707,0 -3.64253,-2.15296 -6.23435,-4.78435 z M 257.22056,-577.80806 c 0.97297,-0.25354 2.32297,-0.23687 3,0.037 0.67703,0.27393 -0.11903,0.48137 -1.76903,0.46099 -1.65,-0.0204 -2.20394,-0.2445 -1.23097,-0.49804 z"
           style="fill:#6b8693" />
        <path
           inkscape:connector-curvature="0"
           id="path4207"
           d="m 526.95153,-137.72326 c -23.81327,-4.30224 -42.05817,-11.60526 -59.47343,-23.80586 l -7.97343,-5.58595 -100.59843,0 c -110.61561,0 -105.52693,0.27413 -113.26171,-6.10152 -2.03224,-1.67515 -4.93203,-5.15009 -6.44399,-7.7221 l -2.74901,-4.67638 -0.75977,-132 c -0.41788,-72.6 -0.64288,-156.525 -0.5,-186.5 0.23474,-49.24785 0.42705,-54.86989 1.9956,-58.3382 2.95863,-6.54203 7.5573,-11.41296 13.55626,-14.35884 l 5.70791,-2.80296 185,0 185,0 5.28768,2.38935 c 6.69713,3.02625 12.73768,9.77328 14.71695,16.4382 1.28348,4.32195 1.49537,19.16002 1.49537,104.71715 l 0,99.68169 6.36306,9.38681 c 16.5509,24.41592 23.97899,48.50443 23.86348,77.3868 -0.20153,50.39125 -28.36527,95.94899 -73.22654,118.45146 -20.29398,10.17948 -32.8088,13.15994 -57,13.57477 -10.175,0.17449 -19.625,0.114 -21,-0.13442 z m 42.57008,-2.93804 c 4.32943,-0.89426 11.43105,-2.75034 15.7814,-4.12462 39.45125,-12.46264 71.71232,-44.48756 85.01773,-84.39541 4.04736,-12.13951 5.81783,-22.59695 6.33765,-37.43374 1.01235,-28.89524 -6.12529,-53.31787 -23.45023,-80.23882 -8.17829,-12.70811 -15.14632,-20.48033 -25.75663,-28.72923 -15.54384,-12.08444 -30.9079,-19.65192 -50.39133,-24.81997 -11.16416,-2.96133 -12.39364,-3.07924 -32.10867,-3.07924 -19.71503,0 -20.94451,0.11791 -32.10867,3.07924 -24.97488,6.62468 -43.58871,17.22298 -62.65854,35.6764 l -8.26722,7.99999 0.26722,-110.69429 0.26721,-110.69428 -93.05366,10e-5 -93.05365,1e-4 -5.19792,2.59023 c -2.85885,1.42463 -6.56266,4.23713 -8.23069,6.25 -6.3777,7.69621 -6.02719,-4.36383 -5.73235,197.22854 0.24398,166.82412 0.41538,183.75469 1.89317,187.00396 2.31043,5.08 7.50864,10.68278 12.28042,13.23618 l 4.09468,2.19109 96.43044,0.26956 c 58.14547,0.16254 96.79775,-0.0978 97.35561,-0.65561 0.5669,-0.5669 -1.15029,-3.38205 -4.43433,-7.26956 -5.87455,-6.95409 -12.37548,-16.65397 -11.64869,-17.38075 0.25317,-0.25318 1.83534,1.45437 3.51592,3.79454 5.34307,7.44008 16.43281,18.7786 20.29242,20.74762 2.05029,1.04598 8.17399,4.92303 13.60822,8.61566 17.60639,11.9638 38.02831,19.74794 58.62728,22.34674 9.88248,1.24679 30.74948,0.46308 40.32321,-1.51443 z m 5.98978,-304.59883 c 2.99208,-2.82978 5.44014,-5.63552 5.44014,-6.23498 0,-0.59946 -5.28031,-6.38403 -11.73403,-12.8546 l -11.73403,-11.76468 11.23403,-11.26599 c 6.17872,-6.19629 11.23403,-11.91849 11.23403,-12.71599 0,-1.93947 -9.01995,-11.0187 -10.94676,-11.0187 -0.83707,0 -6.59149,5.05516 -12.78759,11.23369 l -11.26565,11.23369 -11.26565,-11.23369 c -6.1961,-6.17853 -11.91815,-11.23369 -12.71565,-11.23369 -1.93947,0 -11.0187,9.01995 -11.0187,10.94676 0,0.83707 5.05516,6.59149 11.23369,12.78759 l 11.23369,11.26565 -11.23369,11.26565 c -6.17853,6.1961 -11.23369,11.91815 -11.23369,12.71565 0,1.93947 9.01995,11.0187 10.94676,11.0187 0.83707,0 6.58312,-5.04682 12.76901,-11.21516 l 11.24706,-11.21515 11.86126,11.71515 c 6.52369,6.44334 12.18399,11.71516 12.57844,11.71516 0.39446,0 3.16525,-2.31528 6.15733,-5.14506 z"
           style="fill:#4c6067" />
      </g>
    </g>
    <g
       id="xxicon32"
       inkscape:label="#g4227">
      <rect
         style="opacity:0.95999995;fill:none;fill-opacity:0.68454261;stroke:none;stroke-width:2.79999995;stroke-linecap:round;stroke-miterlimit:4;stroke-dasharray:none;stroke-opacity:1"
         id="rect4138"
         width="32"
         height="32"
         x="185.76657"
         y="428.33591" />
      <g
         transform="matrix(0.12415082,0,0,0.12415082,92.494426,417.4426)"
         id="g4219">
        <rect
           y="127.12371"
           x="781.66797"
           height="165"
           width="177.85715"
           id="rect4199"
           style="opacity:0.95999995;fill:#000000;fill-opacity:1;stroke:none;stroke-width:2.79999995;stroke-linecap:round;stroke-miterlimit:4;stroke-dasharray:none;stroke-opacity:1" />
        <g
           transform="matrix(0.5227676,0,0,0.5227676,641.42727,404.05744)"
           id="g4201">
          <path
             inkscape:connector-curvature="0"
             id="path4203"
             d="m 529.05041,-139.16141 c -44.13785,-5.54388 -84.21928,-34.09757 -103.10846,-73.45366 -9.5917,-19.98455 -13.35759,-36.68778 -13.30207,-59 0.0905,-36.3901 12.83677,-66.22053 39.23416,-91.82108 25.90342,-25.12149 57.26866,-37.88948 93.07749,-37.88948 36.32855,0 68.23346,13.17222 93.53679,38.61747 18.98117,19.08764 30.52265,40.35285 36.1427,66.59309 2.53667,11.84377 2.52986,39.04448 -0.0128,51 -10.17098,47.82429 -44.23426,86.08808 -89.31524,100.32915 -17.54722,5.54317 -39.45809,7.73396 -56.2526,5.62451 z m 59.40112,-114.45366 0,-7 -43.5,0 -43.5,0 -0.30402,5.88803 c -0.16721,3.23841 -0.067,6.5057 0.2227,7.26064 0.43739,1.13984 7.86595,1.32841 43.80402,1.11197 l 43.2773,-0.26064 0,-7 z m 0,-34 0,-7 -43.5,0 -43.5,0 -0.30402,5.88803 c -0.16721,3.23841 -0.067,6.5057 0.2227,7.26064 0.43739,1.13984 7.86595,1.32841 43.80402,1.11197 l 43.2773,-0.26064 0,-7 z"
             style="fill:#25e8b7" />
          <path
             inkscape:connector-curvature="0"
             id="path4205"
             d="m 328.52296,-225.6865 c -1.29277,-1.29277 -1.57143,-4.30736 -1.57143,-17 l 0,-15.42857 -15.42857,0 c -18.47704,0 -18.57143,-0.0483 -18.57143,-9.5 0,-9.45171 0.0944,-9.5 18.57143,-9.5 l 15.42857,0 0,-15.42857 c 0,-18.47704 0.0483,-18.57143 9.5,-18.57143 9.45171,0 9.5,0.0944 9.5,18.57143 l 0,15.42857 15.42857,0 c 18.47704,0 18.57143,0.0483 18.57143,9.5 0,9.45171 -0.0944,9.5 -18.57143,9.5 l -15.42857,0 0,15.42857 c 0,18.47704 -0.0483,18.57143 -9.5,18.57143 -4.44589,0 -6.82959,-0.47245 -7.92857,-1.57143 z m 15.42857,-17.42857 0.5,-16.5 16.5,-0.5 16.5,-0.5 0,-7 0,-7 -16.5,-0.5 -16.5,-0.5 -0.5,-16.5 -0.5,-16.5 -7,0 -7,0 -0.5,16.5 -0.5,16.5 -16.5,0.5 -16.5,0.5 0,7 0,7 16.5,0.5 16.5,0.5 0.25949,15.5 c 0.14272,8.525 0.47404,16.0832 0.73627,16.796 0.34163,0.92865 2.39397,1.2121 7.24051,1 l 6.76373,-0.296 0.5,-16.5 z m 86.60375,-95.5 c 4.79935,-8.84881 7.95898,-12.79559 18.72899,-23.39492 21.46024,-21.12014 38.74556,-31.1079 65.60689,-37.90879 9.66035,-2.44585 12.22228,-2.67373 30.06037,-2.67373 17.83809,0 20.40002,0.22788 30.06037,2.67373 26.11817,6.61274 46.26264,18.09234 63.93963,36.43689 l 7.5,7.78324 -9.02895,-8.52857 c -26.05772,-24.61363 -57.17715,-37.09841 -92.47105,-37.09841 -35.85058,0 -67.16974,12.76372 -93.154,37.96372 -8.18831,7.94117 -12.33917,13.04902 -22.65006,27.87211 -0.71723,1.0311 -0.0837,-0.37527 1.40781,-3.12527 z M 237.95153,-464.45138 c 0,-98.65198 -0.0879,-96.9265 5.29545,-103.9844 1.35523,-1.7768 4.88066,-4.56901 7.8343,-6.20491 l 5.37025,-2.97438 92.25472,-0.27988 92.25472,-0.27988 -0.25472,102.27988 -0.25472,102.27988 -101.25,0.25476 -101.25,0.25476 0,-91.34583 z m 144.5,-14.16369 0,-7 -43.5,0 -43.5,0 -0.30402,5.88803 c -0.16721,3.23841 -0.067,6.5057 0.2227,7.26064 0.43739,1.13984 7.86595,1.32841 43.80402,1.11197 l 43.2773,-0.26064 0,-7 z m 174.25019,25.76082 -11.73918,-11.73917 -11.27115,11.23917 c -6.19914,6.18155 -11.95792,11.23918 -12.7973,11.23918 -1.92483,0 -9.94256,-8.08195 -9.94256,-10.0222 0,-0.79558 5.05516,-6.51605 11.23369,-12.71215 l 11.23369,-11.26565 -11.23369,-11.26565 c -6.17853,-6.1961 -11.23369,-11.91657 -11.23369,-12.71215 0,-1.94025 8.01773,-10.0222 9.94256,-10.0222 0.83938,0 6.59569,5.05516 12.79179,11.23369 l 11.26565,11.23369 11.26565,-11.23369 c 6.1961,-6.17853 11.95241,-11.23369 12.79179,-11.23369 1.92483,0 9.94256,8.08195 9.94256,10.0222 0,0.79558 -5.05531,6.5162 -11.23403,12.71249 l -11.23403,11.26599 11.73403,11.76468 c 6.45372,6.47057 11.73403,12.22484 11.73403,12.78725 0,1.29326 -9.23498,10.44739 -10.53967,10.44739 -0.53403,0 -6.2536,-5.28263 -12.71014,-11.73918 z m -24.25019,-1.26082 c 6.03124,-6.05 11.65624,-11 12.5,-11 0.84376,0 6.46876,4.95 12.5,11 6.03124,6.05 11.40459,11 11.94078,11 1.33445,0 8.55922,-7.14946 8.55922,-8.47 0,-0.58526 -4.95,-5.99876 -11,-12.03 -6.05,-6.03124 -11,-11.64152 -11,-12.4673 0,-0.82577 5.05587,-6.57166 11.23526,-12.76863 l 11.23527,-11.26723 -4.73369,-4.73368 -4.73368,-4.73369 -11.26723,11.23527 c -6.19697,6.17939 -11.92814,11.23526 -12.73593,11.23526 -0.80779,0 -6.53896,-5.05587 -12.73593,-11.23526 l -11.26723,-11.23527 -4.73368,4.73369 -4.73369,4.73368 11.23527,11.26723 c 6.17939,6.19697 11.23526,11.92814 11.23526,12.73593 0,0.80779 -5.04938,6.53245 -11.22085,12.72147 l -11.22084,11.25277 4.42905,4.51288 c 2.43598,2.48208 4.68054,4.51288 4.9879,4.51288 0.30737,0 5.4935,-4.95 11.52474,-11 z"
             style="fill:#8399a4" />
          <path
             inkscape:connector-curvature="0"
             id="path4208"
             d="m 255.94506,-170.04941 c -7.22429,-2.19753 -13.64443,-7.90379 -16.86863,-14.99293 -1.47752,-3.24868 -1.65088,-20.1712 -1.91138,-186.57273 -0.2036,-130.06311 0.0302,-184.30173 0.80831,-187.5 1.54056,-6.33233 5.30547,-11.61744 10.72352,-15.05346 2.55541,-1.6206 5.12061,-2.94232 5.70043,-2.93716 0.57982,0.005 -1.26756,1.34101 -4.10529,2.96855 -2.83773,1.62754 -6.15408,4.35591 -7.36966,6.06304 -5.02876,7.06224 -4.97083,5.85466 -4.97083,103.62272 l 0,91.34583 101.25,-0.25476 101.25,-0.25476 0.25472,-102.25 c 0.14009,-56.2375 0.59009,-102.25005 1,-102.2501 0.4099,-6e-5 0.62503,49.81233 0.47807,110.69418 l -0.26722,110.69429 8.26722,-7.99999 c 13.86534,-13.41716 26.35621,-21.89604 42.67422,-28.96753 9.17694,-3.97687 29.47128,-9.47354 34.44967,-9.3306 1.83395,0.0527 0.22743,0.6219 -3.85668,1.36655 -22.08775,4.02722 -42.08143,12.64393 -58,24.99635 -9.81449,7.6158 -26.49248,24.57633 -31.02132,31.54685 -8.90803,13.71071 -16.00047,31.13581 -19.55479,48.04333 -2.85789,13.59463 -3.10645,36.18071 -0.5429,49.33067 5.40501,27.72544 17.53893,50.95506 36.83753,70.52311 5.91807,6.00071 7.39223,7.93951 5.16551,6.79363 -3.35484,-1.72641 -14.68734,-13.50119 -19.66508,-20.43256 -1.68058,-2.34017 -3.26275,-4.04772 -3.51592,-3.79454 -0.72373,0.72372 5.76424,10.41491 11.58799,17.30919 2.91434,3.45005 5.02703,6.71255 4.69487,7.25 -0.72204,1.16829 -189.65496,1.21011 -193.49236,0.0428 z m 88.43504,-55.63709 c 1.29277,-1.29277 1.57143,-4.30736 1.57143,-17 l 0,-15.42857 15.42857,0 c 18.47704,0 18.57143,-0.0483 18.57143,-9.5 0,-9.45171 -0.0944,-9.5 -18.57143,-9.5 l -15.42857,0 0,-15.42857 c 0,-18.47704 -0.0483,-18.57143 -9.5,-18.57143 -9.45171,0 -9.5,0.0944 -9.5,18.57143 l 0,15.42857 -15.42857,0 c -18.47704,0 -18.57143,0.0483 -18.57143,9.5 0,9.45171 0.0944,9.5 18.57143,9.5 l 15.42857,0 0,15.42857 c 0,18.47704 0.0483,18.57143 9.5,18.57143 4.44589,0 6.82959,-0.47245 7.92857,-1.57143 z m 306.44387,-123.17857 c -1.24387,-1.58606 -1.2085,-1.62143 0.37756,-0.37756 1.66575,1.30637 2.19548,2.12756 1.37244,2.12756 -0.20765,0 -0.99515,-0.7875 -1.75,-1.75 z m -4.24157,-6 c -3.09546,-4.84831 -16.36827,-17.63931 -24.44027,-23.55306 -15.85204,-11.6136 -34.12805,-19.23436 -55.6906,-23.22193 -4.12996,-0.76375 -5.71122,-1.33151 -3.85668,-1.38476 4.97839,-0.14294 25.27273,5.35373 34.44967,9.3306 15.91356,6.89622 32.61914,18.31617 43.49803,29.73531 4.49928,4.7227 10.11901,12.84384 8.8878,12.84384 -0.24955,0 -1.53113,-1.6875 -2.84795,-3.75 z m -108.88087,-48.99251 c 3.9875,-0.18981 10.5125,-0.18981 14.5,0 3.9875,0.18982 0.725,0.34512 -7.25,0.34512 -7.975,0 -11.2375,-0.1553 -7.25,-0.34512 z m -23.03759,-42.04184 c -2.59183,-2.63139 -4.71241,-5.43685 -4.71241,-6.23435 0,-0.7975 5.05516,-6.51955 11.23369,-12.71565 l 11.23369,-11.26565 -11.23369,-11.26565 c -6.17853,-6.1961 -11.23369,-11.95052 -11.23369,-12.78759 0,-1.92681 9.07923,-10.94676 11.0187,-10.94676 0.7975,0 6.51955,5.05516 12.71565,11.23369 l 11.26565,11.23369 11.26565,-11.23369 c 6.1961,-6.17853 11.95052,-11.23369 12.78759,-11.23369 1.92681,0 10.94676,9.07923 10.94676,11.0187 0,0.7975 -5.05531,6.5197 -11.23403,12.71599 l -11.23403,11.26599 11.73403,11.76468 c 6.45372,6.47057 11.73403,12.22484 11.73403,12.78725 0,0.56242 -2.3625,3.25566 -5.25,5.98498 l -5.25,4.96241 4.75,-5.03435 c 2.6125,-2.76889 4.75,-5.46213 4.75,-5.98498 0,-0.52285 -5.28031,-6.24474 -11.73403,-12.71531 l -11.73403,-11.76468 11.23403,-11.26599 c 6.17872,-6.19629 11.23403,-11.91691 11.23403,-12.71249 0,-1.94025 -8.01773,-10.0222 -9.94256,-10.0222 -0.83938,0 -6.59569,5.05516 -12.79179,11.23369 l -11.26565,11.23369 -11.26565,-11.23369 c -6.1961,-6.17853 -11.95241,-11.23369 -12.79179,-11.23369 -1.92483,0 -9.94256,8.08195 -9.94256,10.0222 0,0.79558 5.05516,6.51605 11.23369,12.71215 l 11.23369,11.26565 -11.23369,11.26565 c -6.17853,6.1961 -11.23369,11.95241 -11.23369,12.79179 0,1.92483 8.08195,9.94256 10.0222,9.94256 0.79558,0 6.51852,-5.05763 12.71766,-11.23918 l 11.27115,-11.23917 11.74449,11.98366 11.7445,11.98367 -11.75,-11.47818 -11.75,-11.47818 -11.26565,11.23369 c -6.1961,6.17853 -11.95052,11.23369 -12.78759,11.23369 -0.83707,0 -3.64253,-2.15296 -6.23435,-4.78435 z M 257.22056,-577.80806 c 0.97297,-0.25354 2.32297,-0.23687 3,0.037 0.67703,0.27393 -0.11903,0.48137 -1.76903,0.46099 -1.65,-0.0204 -2.20394,-0.2445 -1.23097,-0.49804 z"
             style="fill:#6b8693" />
          <path
             inkscape:connector-curvature="0"
             id="path4210"
             d="m 526.95153,-137.72326 c -23.81327,-4.30224 -42.05817,-11.60526 -59.47343,-23.80586 l -7.97343,-5.58595 -100.59843,0 c -110.61561,0 -105.52693,0.27413 -113.26171,-6.10152 -2.03224,-1.67515 -4.93203,-5.15009 -6.44399,-7.7221 l -2.74901,-4.67638 -0.75977,-132 c -0.41788,-72.6 -0.64288,-156.525 -0.5,-186.5 0.23474,-49.24785 0.42705,-54.86989 1.9956,-58.3382 2.95863,-6.54203 7.5573,-11.41296 13.55626,-14.35884 l 5.70791,-2.80296 185,0 185,0 5.28768,2.38935 c 6.69713,3.02625 12.73768,9.77328 14.71695,16.4382 1.28348,4.32195 1.49537,19.16002 1.49537,104.71715 l 0,99.68169 6.36306,9.38681 c 16.5509,24.41592 23.97899,48.50443 23.86348,77.3868 -0.20153,50.39125 -28.36527,95.94899 -73.22654,118.45146 -20.29398,10.17948 -32.8088,13.15994 -57,13.57477 -10.175,0.17449 -19.625,0.114 -21,-0.13442 z m 42.57008,-2.93804 c 4.32943,-0.89426 11.43105,-2.75034 15.7814,-4.12462 39.45125,-12.46264 71.71232,-44.48756 85.01773,-84.39541 4.04736,-12.13951 5.81783,-22.59695 6.33765,-37.43374 1.01235,-28.89524 -6.12529,-53.31787 -23.45023,-80.23882 -8.17829,-12.70811 -15.14632,-20.48033 -25.75663,-28.72923 -15.54384,-12.08444 -30.9079,-19.65192 -50.39133,-24.81997 -11.16416,-2.96133 -12.39364,-3.07924 -32.10867,-3.07924 -19.71503,0 -20.94451,0.11791 -32.10867,3.07924 -24.97488,6.62468 -43.58871,17.22298 -62.65854,35.6764 l -8.26722,7.99999 0.26722,-110.69429 0.26721,-110.69428 -93.05366,10e-5 -93.05365,1e-4 -5.19792,2.59023 c -2.85885,1.42463 -6.56266,4.23713 -8.23069,6.25 -6.3777,7.69621 -6.02719,-4.36383 -5.73235,197.22854 0.24398,166.82412 0.41538,183.75469 1.89317,187.00396 2.31043,5.08 7.50864,10.68278 12.28042,13.23618 l 4.09468,2.19109 96.43044,0.26956 c 58.14547,0.16254 96.79775,-0.0978 97.35561,-0.65561 0.5669,-0.5669 -1.15029,-3.38205 -4.43433,-7.26956 -5.87455,-6.95409 -12.37548,-16.65397 -11.64869,-17.38075 0.25317,-0.25318 1.83534,1.45437 3.51592,3.79454 5.34307,7.44008 16.43281,18.7786 20.29242,20.74762 2.05029,1.04598 8.17399,4.92303 13.60822,8.61566 17.60639,11.9638 38.02831,19.74794 58.62728,22.34674 9.88248,1.24679 30.74948,0.46308 40.32321,-1.51443 z m 5.98978,-304.59883 c 2.99208,-2.82978 5.44014,-5.63552 5.44014,-6.23498 0,-0.59946 -5.28031,-6.38403 -11.73403,-12.8546 l -11.73403,-11.76468 11.23403,-11.26599 c 6.17872,-6.19629 11.23403,-11.91849 11.23403,-12.71599 0,-1.93947 -9.01995,-11.0187 -10.94676,-11.0187 -0.83707,0 -6.59149,5.05516 -12.78759,11.23369 l -11.26565,11.23369 -11.26565,-11.23369 c -6.1961,-6.17853 -11.91815,-11.23369 -12.71565,-11.23369 -1.93947,0 -11.0187,9.01995 -11.0187,10.94676 0,0.83707 5.05516,6.59149 11.23369,12.78759 l 11.23369,11.26565 -11.23369,11.26565 c -6.17853,6.1961 -11.23369,11.91815 -11.23369,12.71565 0,1.93947 9.01995,11.0187 10.94676,11.0187 0.83707,0 6.58312,-5.04682 12.76901,-11.21516 l 11.24706,-11.21515 11.86126,11.71515 c 6.52369,6.44334 12.18399,11.71516 12.57844,11.71516 0.39446,0 3.16525,-2.31528 6.15733,-5.14506 z"
             style="fill:#4c6067" />
        </g>
      </g>
    </g>
  </g>
</svg>
