<?xml version="1.0" encoding="UTF-8" standalone="no"?>
<!-- Created with Inkscape (http://www.inkscape.org/) -->

<svg
   xmlns:dc="http://purl.org/dc/elements/1.1/"
   xmlns:cc="http://creativecommons.org/ns#"
   xmlns:rdf="http://www.w3.org/1999/02/22-rdf-syntax-ns#"
   xmlns:svg="http://www.w3.org/2000/svg"
   xmlns="http://www.w3.org/2000/svg"
   xmlns:sodipodi="http://sodipodi.sourceforge.net/DTD/sodipodi-0.dtd"
   xmlns:inkscape="http://www.inkscape.org/namespaces/inkscape"
   width="210mm"
   height="297mm"
   viewBox="0 0 744.09448819 1052.3622047"
   id="svg2"
   version="1.1"
   inkscape:version="0.91 r13725"
   sodipodi:docname="icon.svg">
  <defs
     id="defs4" />
  <sodipodi:namedview
     id="base"
     pagecolor="#ffffff"
     bordercolor="#666666"
     borderopacity="1.0"
     inkscape:pageopacity="0.0"
     inkscape:pageshadow="2"
     inkscape:zoom="7.9195959"
     inkscape:cx="195.78118"
     inkscape:cy="595.95426"
     inkscape:document-units="px"
     inkscape:current-layer="layer1"
     showgrid="false"
     inkscape:window-width="1366"
     inkscape:window-height="705"
     inkscape:window-x="-8"
     inkscape:window-y="-8"
     inkscape:window-maximized="1" />
  <metadata
     id="metadata7">
    <rdf:RDF>
      <cc:Work
         rdf:about="">
        <dc:format>image/svg+xml</dc:format>
        <dc:type
           rdf:resource="http://purl.org/dc/dcmitype/StillImage" />
        <dc:title />
      </cc:Work>
    </rdf:RDF>
  </metadata>
  <g
     inkscape:label="Camada 1"
     inkscape:groupmode="layer"
     id="layer1">
    <g
       id="g4237">
      <rect
         y="412.33591"
         x="239.07767"
         height="48"
         width="48"
         id="rect4140"
         style="opacity:0.95999995;fill:#808000;fill-opacity:0.68454261;stroke:none;stroke-width:2.79999995;stroke-linecap:round;stroke-miterlimit:4;stroke-dasharray:none;stroke-opacity:1" />
      <text
         sodipodi:linespacing="125%"
         id="text4148"
         y="446.79501"
         x="245.15009"
         style="font-style:normal;font-weight:normal;font-size:29.61173058px;line-height:125%;font-family:sans-serif;letter-spacing:0px;word-spacing:0px;fill:#000000;fill-opacity:1;stroke:none;stroke-width:1px;stroke-linecap:butt;stroke-linejoin:miter;stroke-opacity:1"
         xml:space="preserve"><tspan
           y="446.79501"
           x="245.15009"
           id="tspan4150"
           sodipodi:role="line">48</tspan></text>
    </g>
    <g
       id="g4242">
      <rect
         y="444.33591"
         x="148.45547"
         height="16"
         width="16"
         id="rect4136"
         style="opacity:0.95999995;fill:#808000;fill-opacity:0.68454261;stroke:none;stroke-width:2.79999995;stroke-linecap:round;stroke-miterlimit:4;stroke-dasharray:none;stroke-opacity:1" />
      <text
         sodipodi:linespacing="125%"
         id="text4156"
         y="455.13498"
         x="150.64453"
         style="font-style:normal;font-weight:normal;font-size:8.12690258px;line-height:125%;font-family:sans-serif;letter-spacing:0px;word-spacing:0px;fill:#000000;fill-opacity:1;stroke:none;stroke-width:1px;stroke-linecap:butt;stroke-linejoin:miter;stroke-opacity:1"
         xml:space="preserve"><tspan
           y="455.13498"
           x="150.64453"
           id="tspan4158"
           sodipodi:role="line">16</tspan></text>
    </g>
    <g
       id="xxicon256"
       inkscape:label="#g4287">
      <rect
         style="opacity:0.95999995;fill:none;fill-opacity:0.68454261;stroke:none;stroke-width:2.79999995;stroke-linecap:round;stroke-miterlimit:4;stroke-dasharray:none;stroke-opacity:1"
         id="rect4142"
         width="256"
         height="256"
         x="310.56702"
         y="207.0405" />
      <g
         transform="translate(3.609878,-309.30674)"
         id="g4244">
        <rect
           style="opacity:1;fill:#4c6067;fill-opacity:1;stroke:none;stroke-width:2.83299994;stroke-linecap:round;stroke-miterlimit:4;stroke-dasharray:none;stroke-opacity:1"
           id="rect4191"
           width="218.2598"
           height="218.2598"
           x="318.16461"
           y="527.04944"
           ry="18.791544" />
        <path
           inkscape:connector-curvature="0"
           style="opacity:1;fill:#6b8693;fill-opacity:1;stroke:none;stroke-width:2.83299994;stroke-linecap:round;stroke-miterlimit:4;stroke-dasharray:none;stroke-opacity:1"
           d="m 336.95703,527.04883 c -10.41052,0 -18.79297,8.38049 -18.79297,18.79101 l 0,180.67774 c 0,10.41052 8.38245,18.79101 18.79297,18.79101 l 39.29102,0 50.03711,0 34.37695,0 0,-33.40039 -34.37695,0 0,-184.85937 -89.32813,0 z"
           id="rect4195" />
        <circle
           style="opacity:1;fill:#25e8b7;fill-opacity:1;stroke:none;stroke-width:2.48538184;stroke-linecap:round;stroke-miterlimit:4;stroke-dasharray:none;stroke-opacity:1"
           id="path4189"
           cx="481.33765"
           cy="691.23273"
           r="70.412903" />
        <path
           style="opacity:1;fill:#8399a4;fill-opacity:1;stroke:none;stroke-width:2.83299994;stroke-linecap:round;stroke-miterlimit:4;stroke-dasharray:none;stroke-opacity:1"
           d="m 336.95668,527.04923 c -10.41052,0 -18.79297,8.3805 -18.79297,18.79102 l 0,92.35937 108.12109,0 0,-111.15039 -89.32812,0 z"
           id="path4200"
           inkscape:connector-curvature="0" />
        <rect
           style="opacity:1;fill:#000000;fill-opacity:1;stroke:none;stroke-width:2.83299994;stroke-linecap:round;stroke-miterlimit:4;stroke-dasharray:none;stroke-opacity:1"
           id="rect4221"
           width="47.477165"
           height="8.586297"
           x="349.74738"
           y="577.23865"
           ry="0" />
        <path
           style="opacity:1;fill:#000000;fill-opacity:1;stroke:none;stroke-width:2.83299994;stroke-linecap:round;stroke-miterlimit:4;stroke-dasharray:none;stroke-opacity:1"
           d="m 457.78285,677.23869 0,8.58593 47.47656,0 0,-8.58593 -47.47656,0 z m 0.17969,17.67773 0,8.58789 47.47656,0 0,-8.58789 -47.47656,0 z"
           id="rect4223"
           inkscape:connector-curvature="0" />
        <path
           style="opacity:1;fill:#000000;fill-opacity:1;stroke:none;stroke-width:2.83299994;stroke-linecap:round;stroke-miterlimit:4;stroke-dasharray:none;stroke-opacity:1"
           d="m 368.12074,668.1508 0,19.26562 -19.44531,0 0,8.58789 19.44531,0 0,19.62305 8.58594,0 0,-19.62305 19.44726,0 0,-8.58789 -19.44726,0 0,-19.26562 -8.58594,0 z"
           id="rect4227"
           inkscape:connector-curvature="0" />
        <path
           id="path4236"
           d="m 461.70005,569.38986 13.62285,13.62285 -13.74991,13.74991 6.07255,6.07256 13.74991,-13.74992 13.8756,13.8756 6.07117,-6.07118 -13.87559,-13.87559 13.75129,-13.75129 -6.07256,-6.07256 -13.75128,13.75129 -13.62285,-13.62285 -6.07118,6.07118 z"
           style="opacity:1;fill:#000000;fill-opacity:1;stroke:none;stroke-width:2.83299994;stroke-linecap:round;stroke-miterlimit:4;stroke-dasharray:none;stroke-opacity:1"
           inkscape:connector-curvature="0" />
      </g>
    </g>
    <g
       id="xxicon32"
       inkscape:label="#g4299">
      <rect
         style="opacity:0.95999995;fill:none;fill-opacity:0.68454261;stroke:none;stroke-width:2.79999995;stroke-linecap:round;stroke-miterlimit:4;stroke-dasharray:none;stroke-opacity:1"
         id="rect4138"
         width="32"
         height="32"
         x="185.76657"
         y="428.33591" />
      <g
         id="g4269"
         transform="matrix(0.12856714,0,0,0.12856714,145.84538,361.49403)">
        <rect
           ry="18.791544"
           y="527.04944"
           x="318.16461"
           height="218.2598"
           width="218.2598"
           id="rect4271"
           style="opacity:1;fill:#4c6067;fill-opacity:1;stroke:none;stroke-width:2.83299994;stroke-linecap:round;stroke-miterlimit:4;stroke-dasharray:none;stroke-opacity:1" />
        <path
           id="path4273"
           d="m 336.95703,527.04883 c -10.41052,0 -18.79297,8.38049 -18.79297,18.79101 l 0,180.67774 c 0,10.41052 8.38245,18.79101 18.79297,18.79101 l 39.29102,0 50.03711,0 34.37695,0 0,-33.40039 -34.37695,0 0,-184.85937 -89.32813,0 z"
           style="opacity:1;fill:#6b8693;fill-opacity:1;stroke:none;stroke-width:2.83299994;stroke-linecap:round;stroke-miterlimit:4;stroke-dasharray:none;stroke-opacity:1"
           inkscape:connector-curvature="0" />
        <circle
           r="70.412903"
           cy="691.23273"
           cx="481.33765"
           id="circle4275"
           style="opacity:1;fill:#25e8b7;fill-opacity:1;stroke:none;stroke-width:2.48538184;stroke-linecap:round;stroke-miterlimit:4;stroke-dasharray:none;stroke-opacity:1" />
        <path
           inkscape:connector-curvature="0"
           id="path4277"
           d="m 336.95668,527.04923 c -10.41052,0 -18.79297,8.3805 -18.79297,18.79102 l 0,92.35937 108.12109,0 0,-111.15039 -89.32812,0 z"
           style="opacity:1;fill:#8399a4;fill-opacity:1;stroke:none;stroke-width:2.83299994;stroke-linecap:round;stroke-miterlimit:4;stroke-dasharray:none;stroke-opacity:1" />
        <rect
           ry="0"
           y="577.23865"
           x="349.74738"
           height="8.586297"
           width="47.477165"
           id="rect4279"
           style="opacity:1;fill:#000000;fill-opacity:1;stroke:none;stroke-width:2.83299994;stroke-linecap:round;stroke-miterlimit:4;stroke-dasharray:none;stroke-opacity:1" />
        <path
           inkscape:connector-curvature="0"
           id="path4281"
           d="m 457.78285,677.23869 0,8.58593 47.47656,0 0,-8.58593 -47.47656,0 z m 0.17969,17.67773 0,8.58789 47.47656,0 0,-8.58789 -47.47656,0 z"
           style="opacity:1;fill:#000000;fill-opacity:1;stroke:none;stroke-width:2.83299994;stroke-linecap:round;stroke-miterlimit:4;stroke-dasharray:none;stroke-opacity:1" />
        <path
           inkscape:connector-curvature="0"
           id="path4283"
           d="m 368.12074,668.1508 0,19.26562 -19.44531,0 0,8.58789 19.44531,0 0,19.62305 8.58594,0 0,-19.62305 19.44726,0 0,-8.58789 -19.44726,0 0,-19.26562 -8.58594,0 z"
           style="opacity:1;fill:#000000;fill-opacity:1;stroke:none;stroke-width:2.83299994;stroke-linecap:round;stroke-miterlimit:4;stroke-dasharray:none;stroke-opacity:1" />
        <path
           inkscape:connector-curvature="0"
           style="opacity:1;fill:#000000;fill-opacity:1;stroke:none;stroke-width:2.83299994;stroke-linecap:round;stroke-miterlimit:4;stroke-dasharray:none;stroke-opacity:1"
           d="m 461.70005,569.38986 13.62285,13.62285 -13.74991,13.74991 6.07255,6.07256 13.74991,-13.74992 13.8756,13.8756 6.07117,-6.07118 -13.87559,-13.87559 13.75129,-13.75129 -6.07256,-6.07256 -13.75128,13.75129 -13.62285,-13.62285 -6.07118,6.07118 z"
           id="path4285" />
      </g>
    </g>
  </g>
</svg>
